<svg width="578" height="438" viewBox="0 0 578 438" fill="none" xmlns="http://www.w3.org/2000/svg">
<g clip-path="url(#clip0_12_17)">
<path d="M484.65 296.21H93.34C86.2269 296.21 79.4051 299.036 74.3754 304.065C69.3457 309.095 66.52 315.917 66.52 323.03C66.52 330.143 69.3457 336.965 74.3754 341.995C79.4051 347.024 86.2269 349.85 93.34 349.85H484.65C488.459 349.851 492.224 349.039 495.694 347.468C499.163 345.896 502.258 343.603 504.77 340.74C505.907 339.446 506.918 338.046 507.79 336.56C508.465 335.42 509.05 334.23 509.54 333C511.174 328.931 511.784 324.524 511.318 320.164C510.852 315.804 509.324 311.626 506.867 307.994C504.41 304.363 501.1 301.389 497.226 299.335C493.353 297.28 489.035 296.207 484.65 296.21Z" fill="#CCCCCC"/>
<path d="M509.91 335.34C501.223 345.634 491.826 355.307 481.79 364.29H96.21C86.1735 355.307 76.7773 345.634 68.09 335.34H509.91Z" fill="#3F3D56"/>
<path d="M321.28 235.07H256.36C256.01 235.066 255.662 235.12 255.33 235.23C254.625 235.448 254.009 235.886 253.572 236.48C253.134 237.074 252.899 237.792 252.9 238.53V341.09H324.75V238.53C324.75 238.075 324.659 237.624 324.485 237.204C324.31 236.784 324.054 236.402 323.732 236.081C323.41 235.759 323.027 235.505 322.607 235.331C322.186 235.158 321.735 235.069 321.28 235.07ZM296.71 285.67C296.712 287.334 296.164 288.951 295.15 290.27C294.183 291.55 292.838 292.494 291.305 292.969C289.773 293.445 288.13 293.427 286.608 292.919C285.086 292.411 283.762 291.438 282.822 290.138C281.882 288.837 281.375 287.274 281.37 285.67V273.77C281.389 271.748 282.205 269.815 283.641 268.392C285.078 266.969 287.018 266.171 289.04 266.171C291.062 266.171 293.002 266.969 294.439 268.392C295.875 269.815 296.691 271.748 296.71 273.77V285.67Z" fill="#2F2E41"/>
<path d="M252.68 337.81V347.7C252.68 348.213 252.883 348.705 253.245 349.068C253.606 349.432 254.097 349.637 254.61 349.64H323.04C323.552 349.636 324.042 349.43 324.404 349.066C324.765 348.703 324.968 348.212 324.97 347.7V337.81H252.68Z" fill="#3F3D56"/>
<path d="M428.78 75.02H151.28C148.896 75.023 146.61 75.9708 144.923 77.6559C143.236 79.3409 142.286 81.6257 142.28 84.01V271.27C142.282 273.656 143.231 275.944 144.918 277.632C146.606 279.319 148.894 280.268 151.28 280.27H428.78C431.166 280.268 433.454 279.319 435.142 277.632C436.829 275.944 437.778 273.656 437.78 271.27V84.01C437.774 81.6257 436.824 79.3409 435.137 77.6559C433.45 75.9708 431.164 75.023 428.78 75.02Z" fill="#3F3D56"/>
<path d="M426.46 81.52H153.59C152.313 81.5228 151.09 82.0318 150.188 82.9354C149.287 83.839 148.78 85.0634 148.78 86.34V268.96C148.782 270.235 149.29 271.457 150.191 272.359C151.093 273.26 152.315 273.768 153.59 273.77H426.46C427.735 273.768 428.957 273.26 429.859 272.359C430.76 271.457 431.268 270.235 431.27 268.96V86.34C431.27 85.0634 430.763 83.839 429.862 82.9354C428.96 82.0318 427.737 81.5228 426.46 81.52Z" fill="#ADD382"/>
<path d="M376.24 349.48L373.72 337.51C373.616 337.022 373.391 336.568 373.066 336.189C372.741 335.81 372.326 335.518 371.86 335.34C371.522 335.208 371.163 335.14 370.8 335.14H213.49C213.127 335.14 212.768 335.208 212.43 335.34C211.964 335.518 211.549 335.81 211.224 336.189C210.899 336.568 210.674 337.022 210.57 337.51L208.05 349.48C207.959 349.915 207.966 350.364 208.07 350.795C208.175 351.227 208.374 351.63 208.654 351.975C208.933 352.319 209.286 352.597 209.687 352.789C210.088 352.98 210.526 353.079 210.97 353.08H373.31C373.755 353.082 374.196 352.984 374.597 352.791C374.999 352.599 375.352 352.318 375.63 351.97C375.91 351.626 376.11 351.225 376.216 350.794C376.321 350.363 376.33 349.914 376.24 349.48Z" fill="#2F2E41"/>
<path d="M219.155 337.296H215.131C214.862 337.296 214.643 337.514 214.643 337.784V339.808C214.643 340.077 214.862 340.296 215.131 340.296H219.155C219.424 340.296 219.643 340.077 219.643 339.808V337.784C219.643 337.514 219.424 337.296 219.155 337.296Z" fill="#3F3D56"/>
<path d="M229.155 337.296H225.131C224.862 337.296 224.643 337.514 224.643 337.784V339.808C224.643 340.077 224.862 340.296 225.131 340.296H229.155C229.424 340.296 229.643 340.077 229.643 339.808V337.784C229.643 337.514 229.424 337.296 229.155 337.296Z" fill="#3F3D56"/>
<path d="M239.155 337.296H235.131C234.862 337.296 234.643 337.514 234.643 337.784V339.808C234.643 340.077 234.862 340.296 235.131 340.296H239.155C239.424 340.296 239.643 340.077 239.643 339.808V337.784C239.643 337.514 239.424 337.296 239.155 337.296Z" fill="#3F3D56"/>
<path d="M249.155 337.296H245.131C244.862 337.296 244.643 337.514 244.643 337.784V339.808C244.643 340.077 244.862 340.296 245.131 340.296H249.155C249.424 340.296 249.643 340.077 249.643 339.808V337.784C249.643 337.514 249.424 337.296 249.155 337.296Z" fill="#3F3D56"/>
<path d="M259.155 337.296H255.131C254.862 337.296 254.643 337.514 254.643 337.784V339.808C254.643 340.077 254.862 340.296 255.131 340.296H259.155C259.424 340.296 259.643 340.077 259.643 339.808V337.784C259.643 337.514 259.424 337.296 259.155 337.296Z" fill="#3F3D56"/>
<path d="M269.155 337.296H265.131C264.862 337.296 264.643 337.514 264.643 337.784V339.808C264.643 340.077 264.862 340.296 265.131 340.296H269.155C269.424 340.296 269.643 340.077 269.643 339.808V337.784C269.643 337.514 269.424 337.296 269.155 337.296Z" fill="#3F3D56"/>
<path d="M279.155 337.296H275.131C274.862 337.296 274.643 337.514 274.643 337.784V339.808C274.643 340.077 274.862 340.296 275.131 340.296H279.155C279.424 340.296 279.643 340.077 279.643 339.808V337.784C279.643 337.514 279.424 337.296 279.155 337.296Z" fill="#3F3D56"/>
<path d="M289.155 337.296H285.131C284.862 337.296 284.643 337.514 284.643 337.784V339.808C284.643 340.077 284.862 340.296 285.131 340.296H289.155C289.424 340.296 289.643 340.077 289.643 339.808V337.784C289.643 337.514 289.424 337.296 289.155 337.296Z" fill="#3F3D56"/>
<path d="M299.155 337.296H295.131C294.862 337.296 294.643 337.514 294.643 337.784V339.808C294.643 340.077 294.862 340.296 295.131 340.296H299.155C299.424 340.296 299.643 340.077 299.643 339.808V337.784C299.643 337.514 299.424 337.296 299.155 337.296Z" fill="#3F3D56"/>
<path d="M309.155 337.296H305.131C304.862 337.296 304.643 337.514 304.643 337.784V339.808C304.643 340.077 304.862 340.296 305.131 340.296H309.155C309.424 340.296 309.643 340.077 309.643 339.808V337.784C309.643 337.514 309.424 337.296 309.155 337.296Z" fill="#3F3D56"/>
<path d="M319.155 337.296H315.131C314.862 337.296 314.643 337.514 314.643 337.784V339.808C314.643 340.077 314.862 340.296 315.131 340.296H319.155C319.424 340.296 319.643 340.077 319.643 339.808V337.784C319.643 337.514 319.424 337.296 319.155 337.296Z" fill="#3F3D56"/>
<path d="M329.155 337.296H325.131C324.862 337.296 324.643 337.514 324.643 337.784V339.808C324.643 340.077 324.862 340.296 325.131 340.296H329.155C329.424 340.296 329.643 340.077 329.643 339.808V337.784C329.643 337.514 329.424 337.296 329.155 337.296Z" fill="#3F3D56"/>
<path d="M339.155 337.296H335.131C334.862 337.296 334.643 337.514 334.643 337.784V339.808C334.643 340.077 334.862 340.296 335.131 340.296H339.155C339.424 340.296 339.643 340.077 339.643 339.808V337.784C339.643 337.514 339.424 337.296 339.155 337.296Z" fill="#3F3D56"/>
<path d="M349.155 337.296H345.131C344.862 337.296 344.643 337.514 344.643 337.784V339.808C344.643 340.077 344.862 340.296 345.131 340.296H349.155C349.424 340.296 349.643 340.077 349.643 339.808V337.784C349.643 337.514 349.424 337.296 349.155 337.296Z" fill="#3F3D56"/>
<path d="M359.155 337.296H355.131C354.862 337.296 354.643 337.514 354.643 337.784V339.808C354.643 340.077 354.862 340.296 355.131 340.296H359.155C359.424 340.296 359.643 340.077 359.643 339.808V337.784C359.643 337.514 359.424 337.296 359.155 337.296Z" fill="#3F3D56"/>
<path d="M369.155 337.296H365.131C364.862 337.296 364.643 337.514 364.643 337.784V339.808C364.643 340.077 364.862 340.296 365.131 340.296H369.155C369.424 340.296 369.643 340.077 369.643 339.808V337.784C369.643 337.514 369.424 337.296 369.155 337.296Z" fill="#3F3D56"/>
<path d="M219.037 342.296H215.013C214.743 342.296 214.525 342.514 214.525 342.784V344.808C214.525 345.077 214.743 345.296 215.013 345.296H219.037C219.306 345.296 219.525 345.077 219.525 344.808V342.784C219.525 342.514 219.306 342.296 219.037 342.296Z" fill="#3F3D56"/>
<path d="M229.037 342.296H225.013C224.743 342.296 224.525 342.514 224.525 342.784V344.808C224.525 345.077 224.743 345.296 225.013 345.296H229.037C229.306 345.296 229.525 345.077 229.525 344.808V342.784C229.525 342.514 229.306 342.296 229.037 342.296Z" fill="#3F3D56"/>
<path d="M239.037 342.296H235.013C234.743 342.296 234.525 342.514 234.525 342.784V344.808C234.525 345.077 234.743 345.296 235.013 345.296H239.037C239.306 345.296 239.525 345.077 239.525 344.808V342.784C239.525 342.514 239.306 342.296 239.037 342.296Z" fill="#3F3D56"/>
<path d="M249.037 342.296H245.013C244.743 342.296 244.525 342.514 244.525 342.784V344.808C244.525 345.077 244.743 345.296 245.013 345.296H249.037C249.306 345.296 249.525 345.077 249.525 344.808V342.784C249.525 342.514 249.306 342.296 249.037 342.296Z" fill="#3F3D56"/>
<path d="M259.037 342.296H255.013C254.743 342.296 254.525 342.514 254.525 342.784V344.808C254.525 345.077 254.743 345.296 255.013 345.296H259.037C259.306 345.296 259.525 345.077 259.525 344.808V342.784C259.525 342.514 259.306 342.296 259.037 342.296Z" fill="#3F3D56"/>
<path d="M269.037 342.296H265.013C264.743 342.296 264.525 342.514 264.525 342.784V344.808C264.525 345.077 264.743 345.296 265.013 345.296H269.037C269.306 345.296 269.525 345.077 269.525 344.808V342.784C269.525 342.514 269.306 342.296 269.037 342.296Z" fill="#3F3D56"/>
<path d="M279.037 342.296H275.013C274.743 342.296 274.525 342.514 274.525 342.784V344.808C274.525 345.077 274.743 345.296 275.013 345.296H279.037C279.306 345.296 279.525 345.077 279.525 344.808V342.784C279.525 342.514 279.306 342.296 279.037 342.296Z" fill="#3F3D56"/>
<path d="M289.037 342.296H285.013C284.743 342.296 284.525 342.514 284.525 342.784V344.808C284.525 345.077 284.743 345.296 285.013 345.296H289.037C289.306 345.296 289.525 345.077 289.525 344.808V342.784C289.525 342.514 289.306 342.296 289.037 342.296Z" fill="#3F3D56"/>
<path d="M299.037 342.296H295.013C294.743 342.296 294.525 342.514 294.525 342.784V344.808C294.525 345.077 294.743 345.296 295.013 345.296H299.037C299.306 345.296 299.525 345.077 299.525 344.808V342.784C299.525 342.514 299.306 342.296 299.037 342.296Z" fill="#3F3D56"/>
<path d="M309.037 342.296H305.013C304.743 342.296 304.525 342.514 304.525 342.784V344.808C304.525 345.077 304.743 345.296 305.013 345.296H309.037C309.306 345.296 309.525 345.077 309.525 344.808V342.784C309.525 342.514 309.306 342.296 309.037 342.296Z" fill="#3F3D56"/>
<path d="M319.037 342.296H315.013C314.743 342.296 314.525 342.514 314.525 342.784V344.808C314.525 345.077 314.743 345.296 315.013 345.296H319.037C319.306 345.296 319.525 345.077 319.525 344.808V342.784C319.525 342.514 319.306 342.296 319.037 342.296Z" fill="#3F3D56"/>
<path d="M329.037 342.296H325.013C324.743 342.296 324.525 342.514 324.525 342.784V344.808C324.525 345.077 324.743 345.296 325.013 345.296H329.037C329.306 345.296 329.525 345.077 329.525 344.808V342.784C329.525 342.514 329.306 342.296 329.037 342.296Z" fill="#3F3D56"/>
<path d="M339.037 342.296H335.013C334.743 342.296 334.525 342.514 334.525 342.784V344.808C334.525 345.077 334.743 345.296 335.013 345.296H339.037C339.306 345.296 339.525 345.077 339.525 344.808V342.784C339.525 342.514 339.306 342.296 339.037 342.296Z" fill="#3F3D56"/>
<path d="M349.037 342.296H345.013C344.743 342.296 344.525 342.514 344.525 342.784V344.808C344.525 345.077 344.743 345.296 345.013 345.296H349.037C349.306 345.296 349.525 345.077 349.525 344.808V342.784C349.525 342.514 349.306 342.296 349.037 342.296Z" fill="#3F3D56"/>
<path d="M359.037 342.296H355.013C354.743 342.296 354.525 342.514 354.525 342.784V344.808C354.525 345.077 354.743 345.296 355.013 345.296H359.037C359.306 345.296 359.525 345.077 359.525 344.808V342.784C359.525 342.514 359.306 342.296 359.037 342.296Z" fill="#3F3D56"/>
<path d="M369.037 342.296H365.013C364.743 342.296 364.525 342.514 364.525 342.784V344.808C364.525 345.077 364.743 345.296 365.013 345.296H369.037C369.306 345.296 369.525 345.077 369.525 344.808V342.784C369.525 342.514 369.306 342.296 369.037 342.296Z" fill="#3F3D56"/>
<path d="M302.037 348.296H263.013C262.743 348.296 262.525 348.514 262.525 348.784V350.808C262.525 351.077 262.743 351.296 263.013 351.296H302.037C302.306 351.296 302.525 351.077 302.525 350.808V348.784C302.525 348.514 302.306 348.296 302.037 348.296Z" fill="#3F3D56"/>
<path d="M412.748 106.677H157.425C157.159 106.671 156.907 106.561 156.721 106.372C156.535 106.182 156.431 105.927 156.431 105.661C156.431 105.396 156.535 105.141 156.721 104.951C156.907 104.761 157.159 104.652 157.425 104.646H412.748C413.014 104.652 413.266 104.761 413.452 104.951C413.637 105.141 413.741 105.396 413.741 105.661C413.741 105.927 413.637 106.182 413.452 106.372C413.266 106.561 413.014 106.671 412.748 106.677Z" fill="#3F3D56"/>
<path d="M174.805 99.4618C178.091 99.4618 180.755 96.7384 180.755 93.3788C180.755 90.0192 178.091 87.2958 174.805 87.2958C171.519 87.2958 168.855 90.0192 168.855 93.3788C168.855 96.7384 171.519 99.4618 174.805 99.4618Z" fill="#3F3D56"/>
<path d="M195.361 99.4618C198.647 99.4618 201.311 96.7384 201.311 93.3788C201.311 90.0192 198.647 87.2958 195.361 87.2958C192.075 87.2958 189.411 90.0192 189.411 93.3788C189.411 96.7384 192.075 99.4618 195.361 99.4618Z" fill="#3F3D56"/>
<path d="M215.917 99.4618C219.203 99.4618 221.867 96.7384 221.867 93.3788C221.867 90.0192 219.203 87.2958 215.917 87.2958C212.631 87.2958 209.967 90.0192 209.967 93.3788C209.967 96.7384 212.631 99.4618 215.917 99.4618Z" fill="#3F3D56"/>
<path d="M400.37 88.8H385.77C385.481 88.8067 385.207 88.9261 385.005 89.1326C384.803 89.3391 384.69 89.6163 384.69 89.905C384.69 90.1937 384.803 90.4709 385.005 90.6774C385.207 90.8839 385.481 91.0033 385.77 91.01H400.37C400.66 91.0059 400.937 90.8877 401.141 90.6809C401.345 90.4741 401.46 90.1954 401.46 89.905C401.46 89.6146 401.345 89.3359 401.141 89.1291C400.937 88.9223 400.66 88.8041 400.37 88.8Z" fill="#3F3D56"/>
<path d="M400.37 92.95H385.77C385.481 92.9564 385.206 93.0756 385.004 93.2821C384.802 93.4887 384.689 93.7661 384.689 94.055C384.689 94.3439 384.802 94.6213 385.004 94.8279C385.206 95.0344 385.481 95.1536 385.77 95.16H400.37C400.661 95.1565 400.938 95.0385 401.143 94.8317C401.347 94.6248 401.462 94.3458 401.462 94.055C401.462 93.7642 401.347 93.4852 401.143 93.2783C400.938 93.0715 400.661 92.9535 400.37 92.95Z" fill="#3F3D56"/>
<path d="M400.37 97.1H385.77C385.481 97.1067 385.207 97.2261 385.005 97.4326C384.803 97.6391 384.69 97.9163 384.69 98.205C384.69 98.4937 384.803 98.7709 385.005 98.9774C385.207 99.1839 385.481 99.3033 385.77 99.31H400.37C400.66 99.3059 400.937 99.1877 401.141 98.9809C401.345 98.7741 401.46 98.4954 401.46 98.205C401.46 97.9146 401.345 97.6359 401.141 97.4291C400.937 97.2223 400.66 97.1041 400.37 97.1Z" fill="#3F3D56"/>
<path d="M179.44 130.273H174.194C172.604 130.273 171.314 131.563 171.314 133.153C171.314 134.744 172.604 136.033 174.194 136.033H179.44C181.031 136.033 182.32 134.744 182.32 133.153C182.32 131.563 181.031 130.273 179.44 130.273Z" fill="#E6E6E6"/>
<path d="M239.44 130.273H234.194C232.603 130.273 231.314 131.563 231.314 133.153C231.314 134.744 232.603 136.033 234.194 136.033H239.44C241.031 136.033 242.32 134.744 242.32 133.153C242.32 131.563 241.031 130.273 239.44 130.273Z" fill="#E6E6E6"/>
<path d="M256.44 130.273H251.194C249.603 130.273 248.314 131.563 248.314 133.153C248.314 134.744 249.603 136.033 251.194 136.033H256.44C258.031 136.033 259.32 134.744 259.32 133.153C259.32 131.563 258.031 130.273 256.44 130.273Z" fill="#E6E6E6"/>
<path d="M223.12 129.793H190.514C188.924 129.793 187.634 131.083 187.634 132.673C187.634 134.264 188.924 135.553 190.514 135.553H223.12C224.711 135.553 226 134.264 226 132.673C226 131.083 224.711 129.793 223.12 129.793Z" fill="#E6E6E6"/>
<path d="M303.12 129.793H270.514C268.924 129.793 267.634 131.083 267.634 132.673C267.634 134.264 268.924 135.553 270.514 135.553H303.12C304.711 135.553 306 134.264 306 132.673C306 131.083 304.711 129.793 303.12 129.793Z" fill="#E6E6E6"/>
<path d="M195.44 143.273H190.194C188.604 143.273 187.314 144.563 187.314 146.153C187.314 147.744 188.604 149.033 190.194 149.033H195.44C197.031 149.033 198.32 147.744 198.32 146.153C198.32 144.563 197.031 143.273 195.44 143.273Z" fill="#E6E6E6"/>
<path d="M255.44 143.273H250.194C248.603 143.273 247.314 144.563 247.314 146.153C247.314 147.744 248.603 149.033 250.194 149.033H255.44C257.031 149.033 258.32 147.744 258.32 146.153C258.32 144.563 257.031 143.273 255.44 143.273Z" fill="#E6E6E6"/>
<path d="M272.44 143.273H267.194C265.603 143.273 264.314 144.563 264.314 146.153C264.314 147.744 265.603 149.033 267.194 149.033H272.44C274.031 149.033 275.32 147.744 275.32 146.153C275.32 144.563 274.031 143.273 272.44 143.273Z" fill="#E6E6E6"/>
<path d="M239.12 142.793H206.514C204.924 142.793 203.634 144.083 203.634 145.673C203.634 147.264 204.924 148.553 206.514 148.553H239.12C240.711 148.553 242 147.264 242 145.673C242 144.083 240.711 142.793 239.12 142.793Z" fill="#E6E6E6"/>
<path d="M319.12 142.793H286.514C284.924 142.793 283.634 144.083 283.634 145.673C283.634 147.264 284.924 148.553 286.514 148.553H319.12C320.711 148.553 322 147.264 322 145.673C322 144.083 320.711 142.793 319.12 142.793Z" fill="#E6E6E6"/>
<path d="M211.44 156.273H206.194C204.603 156.273 203.314 157.563 203.314 159.153C203.314 160.744 204.603 162.033 206.194 162.033H211.44C213.031 162.033 214.32 160.744 214.32 159.153C214.32 157.563 213.031 156.273 211.44 156.273Z" fill="#E6E6E6"/>
<path d="M271.44 156.273H266.194C264.603 156.273 263.314 157.563 263.314 159.153C263.314 160.744 264.603 162.033 266.194 162.033H271.44C273.031 162.033 274.32 160.744 274.32 159.153C274.32 157.563 273.031 156.273 271.44 156.273Z" fill="#E6E6E6"/>
<path d="M288.44 156.273H283.194C281.603 156.273 280.314 157.563 280.314 159.153C280.314 160.744 281.603 162.033 283.194 162.033H288.44C290.031 162.033 291.32 160.744 291.32 159.153C291.32 157.563 290.031 156.273 288.44 156.273Z" fill="#E6E6E6"/>
<path d="M255.12 155.793H222.514C220.924 155.793 219.634 157.083 219.634 158.673C219.634 160.264 220.924 161.553 222.514 161.553H255.12C256.711 161.553 258 160.264 258 158.673C258 157.083 256.711 155.793 255.12 155.793Z" fill="#E6E6E6"/>
<path d="M335.12 155.793H302.514C300.924 155.793 299.634 157.083 299.634 158.673C299.634 160.264 300.924 161.553 302.514 161.553H335.12C336.711 161.553 338 160.264 338 158.673C338 157.083 336.711 155.793 335.12 155.793Z" fill="#E6E6E6"/>
<path d="M227.44 169.273H222.194C220.603 169.273 219.314 170.563 219.314 172.153C219.314 173.744 220.603 175.033 222.194 175.033H227.44C229.031 175.033 230.32 173.744 230.32 172.153C230.32 170.563 229.031 169.273 227.44 169.273Z" fill="#E6E6E6"/>
<path d="M287.44 169.273H282.194C280.603 169.273 279.314 170.563 279.314 172.153C279.314 173.744 280.603 175.033 282.194 175.033H287.44C289.031 175.033 290.32 173.744 290.32 172.153C290.32 170.563 289.031 169.273 287.44 169.273Z" fill="#E6E6E6"/>
<path d="M304.44 169.273H299.194C297.603 169.273 296.314 170.563 296.314 172.153C296.314 173.744 297.603 175.033 299.194 175.033H304.44C306.031 175.033 307.32 173.744 307.32 172.153C307.32 170.563 306.031 169.273 304.44 169.273Z" fill="#E6E6E6"/>
<path d="M271.12 168.793H238.514C236.924 168.793 235.634 170.083 235.634 171.673C235.634 173.264 236.924 174.553 238.514 174.553H271.12C272.711 174.553 274 173.264 274 171.673C274 170.083 272.711 168.793 271.12 168.793Z" fill="#E6E6E6"/>
<path d="M239.44 220.967H234.194C232.603 220.967 231.314 222.256 231.314 223.847C231.314 225.437 232.603 226.727 234.194 226.727H239.44C241.031 226.727 242.32 225.437 242.32 223.847C242.32 222.256 241.031 220.967 239.44 220.967Z" fill="#E6E6E6"/>
<path d="M256.44 220.967H251.194C249.603 220.967 248.314 222.256 248.314 223.847C248.314 225.437 249.603 226.727 251.194 226.727H256.44C258.031 226.727 259.32 225.437 259.32 223.847C259.32 222.256 258.031 220.967 256.44 220.967Z" fill="#E6E6E6"/>
<path d="M303.12 221.447H270.514C268.924 221.447 267.634 222.736 267.634 224.327C267.634 225.917 268.924 227.207 270.514 227.207H303.12C304.711 227.207 306 225.917 306 224.327C306 222.736 304.711 221.447 303.12 221.447Z" fill="#E6E6E6"/>
<path d="M179.44 220.967H174.194C172.604 220.967 171.314 222.256 171.314 223.847C171.314 225.437 172.604 226.727 174.194 226.727H179.44C181.031 226.727 182.32 225.437 182.32 223.847C182.32 222.256 181.031 220.967 179.44 220.967Z" fill="#E6E6E6"/>
<path d="M223.12 221.447H190.514C188.924 221.447 187.634 222.736 187.634 224.327C187.634 225.917 188.924 227.207 190.514 227.207H223.12C224.711 227.207 226 225.917 226 224.327C226 222.736 224.711 221.447 223.12 221.447Z" fill="#E6E6E6"/>
<path d="M195.44 207.967H190.194C188.604 207.967 187.314 209.256 187.314 210.847C187.314 212.437 188.604 213.727 190.194 213.727H195.44C197.031 213.727 198.32 212.437 198.32 210.847C198.32 209.256 197.031 207.967 195.44 207.967Z" fill="#E6E6E6"/>
<path d="M255.44 207.967H250.194C248.603 207.967 247.314 209.256 247.314 210.847C247.314 212.437 248.603 213.727 250.194 213.727H255.44C257.031 213.727 258.32 212.437 258.32 210.847C258.32 209.256 257.031 207.967 255.44 207.967Z" fill="#E6E6E6"/>
<path d="M272.44 207.967H267.194C265.603 207.967 264.314 209.256 264.314 210.847C264.314 212.437 265.603 213.727 267.194 213.727H272.44C274.031 213.727 275.32 212.437 275.32 210.847C275.32 209.256 274.031 207.967 272.44 207.967Z" fill="#E6E6E6"/>
<path d="M239.12 208.447H206.514C204.924 208.447 203.634 209.736 203.634 211.327C203.634 212.917 204.924 214.207 206.514 214.207H239.12C240.711 214.207 242 212.917 242 211.327C242 209.736 240.711 208.447 239.12 208.447Z" fill="#E6E6E6"/>
<path d="M211.44 194.967H206.194C204.603 194.967 203.314 196.256 203.314 197.847C203.314 199.437 204.603 200.727 206.194 200.727H211.44C213.031 200.727 214.32 199.437 214.32 197.847C214.32 196.256 213.031 194.967 211.44 194.967Z" fill="#E6E6E6"/>
<path d="M271.44 194.967H266.194C264.603 194.967 263.314 196.256 263.314 197.847C263.314 199.437 264.603 200.727 266.194 200.727H271.44C273.031 200.727 274.32 199.437 274.32 197.847C274.32 196.256 273.031 194.967 271.44 194.967Z" fill="#E6E6E6"/>
<path d="M288.44 194.967H283.194C281.603 194.967 280.314 196.256 280.314 197.847C280.314 199.437 281.603 200.727 283.194 200.727H288.44C290.031 200.727 291.32 199.437 291.32 197.847C291.32 196.256 290.031 194.967 288.44 194.967Z" fill="#E6E6E6"/>
<path d="M255.12 195.447H222.514C220.924 195.447 219.634 196.736 219.634 198.327C219.634 199.917 220.924 201.207 222.514 201.207H255.12C256.711 201.207 258 199.917 258 198.327C258 196.736 256.711 195.447 255.12 195.447Z" fill="#E6E6E6"/>
<path d="M227.44 181.967H222.194C220.603 181.967 219.314 183.256 219.314 184.847C219.314 186.437 220.603 187.727 222.194 187.727H227.44C229.031 187.727 230.32 186.437 230.32 184.847C230.32 183.256 229.031 181.967 227.44 181.967Z" fill="#E6E6E6"/>
<path d="M287.44 181.967H282.194C280.603 181.967 279.314 183.256 279.314 184.847C279.314 186.437 280.603 187.727 282.194 187.727H287.44C289.031 187.727 290.32 186.437 290.32 184.847C290.32 183.256 289.031 181.967 287.44 181.967Z" fill="#E6E6E6"/>
<path d="M304.44 181.967H299.194C297.603 181.967 296.314 183.256 296.314 184.847C296.314 186.437 297.603 187.727 299.194 187.727H304.44C306.031 187.727 307.32 186.437 307.32 184.847C307.32 183.256 306.031 181.967 304.44 181.967Z" fill="#E6E6E6"/>
<path d="M271.12 182.447H238.514C236.924 182.447 235.634 183.736 235.634 185.327C235.634 186.917 236.924 188.207 238.514 188.207H271.12C272.711 188.207 274 186.917 274 185.327C274 183.736 272.711 182.447 271.12 182.447Z" fill="#E6E6E6"/>
<path d="M415.81 408.77C415.2 409.08 414.58 409.39 413.97 409.69C398.17 417.59 385.53 422.08 368.24 427C366.78 410.7 365.37 382.05 364 364.29C363.64 359.68 363.28 355.81 362.93 353.08C362.842 351.629 362.545 350.197 362.05 348.83L362.11 353.08L362.26 364.29L363.13 428.4C341.622 434.091 319.529 437.275 297.29 437.89C296.13 437.92 294.99 437.94 293.89 437.96C293.5 437.97 293.12 437.98 292.74 437.98C291.49 437.99 290.25 438 289 438C265.564 438.017 242.213 435.187 219.46 429.57C219.95 413.44 220.44 385.11 220.91 364.29C221.01 360.22 221.1 356.43 221.2 353.08C221.39 345.92 221.59 340.76 221.78 339.03C221.612 339.337 221.481 339.662 221.39 340C220.464 344.312 219.832 348.682 219.5 353.08C219.15 356.43 218.8 360.22 218.45 364.29C216.59 385.92 214.65 415.33 212.65 427.8C200.746 424.55 189.064 420.532 177.68 415.77C171.68 413.27 165.787 410.573 160 407.68C161.1 400.48 162.25 392.41 163.43 384.04C164.35 377.55 165.3 370.88 166.27 364.29C167.77 354.11 169.31 344.13 170.87 335.34C173.15 322.5 175.49 312.18 177.81 307.44C180.01 302.94 182.21 298.5 184.34 294.25C185.08 292.76 185.82 291.29 186.54 289.86C186.71 289.52 186.88 289.19 187.05 288.86C188.58 285.85 190.06 282.97 191.47 280.27C192.68 277.96 193.83 275.78 194.92 273.77C197.56 268.89 199.8 265 201.46 262.54C208.4 252.013 218.732 244.176 230.74 240.33L231.04 240.25L231.25 240.34L251.7 234.06L254.69 233.14L256.7 232.52L263.78 227.13L267.63 224.2L271.24 221.45L278.3 216.08L322.01 218.77L330.52 239.26L349.58 246.23L349.91 246.08L350.2 245.96L350.5 246.04C362.506 249.889 372.837 257.726 379.78 268.25C380.72 269.66 381.86 271.52 383.15 273.77C384.25 275.68 385.45 277.86 386.75 280.27C388.6 283.7 390.62 287.57 392.76 291.76C393.23 292.68 393.71 293.62 394.19 294.57C395.08 296.33 395.983 298.127 396.9 299.96C399.03 304.21 401.23 308.65 403.43 313.16C405.34 317.07 407.27 325.11 409.17 335.34C410.74 343.84 412.3 353.86 413.81 364.29C415.79 377.81 413.68 394 415.47 406.44C415.58 407.23 415.7 408 415.81 408.77Z" fill="#3A5A40"/>
<path d="M289.615 199.725C317.691 199.725 340.451 176.964 340.451 148.888C340.451 120.812 317.691 98.0518 289.615 98.0518C261.539 98.0518 238.779 120.812 238.779 148.888C238.779 176.964 261.539 199.725 289.615 199.725Z" fill="#A0616A"/>
<path d="M373.45 81.52C372.445 79.1742 371.108 76.9851 369.48 75.02C361.76 65.59 347.72 61.44 333.31 72.6C330.536 71.9803 327.645 72.1465 324.96 73.08C323.693 73.5389 322.505 74.1935 321.44 75.02C319.258 76.7221 317.556 78.9619 316.5 81.52C315.936 82.8711 315.565 84.2952 315.4 85.75C311.838 83.8992 308.068 82.4792 304.17 81.52C294.606 79.141 284.604 79.141 275.04 81.52C271.975 82.2953 269.024 83.4651 266.26 85C261.58 87.7 258.89 91.11 258.41 94.9C251.66 95.28 244.64 98.83 239.41 104.65C238.82 105.3 238.25 105.98 237.72 106.68C233.322 112.435 230.958 119.487 231 126.73V128H232.27C235.75 127.997 239.197 128.669 242.42 129.98C244.509 130.819 246.487 131.91 248.31 133.23C249.503 134.076 250.629 135.012 251.68 136.03C254.116 138.388 256.179 141.102 257.8 144.08C261.955 151.605 263.395 160.329 261.88 168.79C261.532 170.749 261.024 172.675 260.36 174.55C259.415 177.225 258.171 179.785 256.65 182.18C256.59 182.27 256.54 182.36 256.48 182.45C255.81 183.52 255.17 184.61 254.57 185.71C254.12 186.53 253.7 187.37 253.31 188.21C252.17 190.548 251.207 192.968 250.43 195.45C249.038 199.84 248.218 204.391 247.99 208.99C247.92 210.21 247.9 211.43 247.94 212.65C247.999 215.795 248.344 218.928 248.97 222.01C249.06 222.43 249.15 222.84 249.24 223.26L249.97 226.45L251.7 234.06L252.9 239.3L254.01 244.16L255.65 241.81C256.21 241.01 257.62 238.55 259.51 235.07C260.76 232.8 262.21 230.09 263.78 227.13C265.97 222.98 268.37 218.35 270.72 213.73C271.67 211.86 272.61 210 273.52 208.18C275.24 204.73 276.86 201.4 278.25 198.44C279.53 195.71 280.62 193.29 281.43 191.35C281.68 192.62 281.89 193.91 282.05 195.21C282.23 196.53 282.36 197.87 282.43 199.21C282.45 199.41 282.46 199.62 282.47 199.82L282.51 200.64L282.52 200.88L283.58 201.02C289.694 201.675 295.857 201.722 301.98 201.16H301.99C310.101 200.549 318.059 198.621 325.55 195.45C329.805 193.604 333.777 191.167 337.35 188.21C339.019 186.828 340.578 185.317 342.01 183.69C342.37 183.28 342.72 182.87 343.06 182.45C345.039 180.018 346.733 177.367 348.11 174.55C349.032 172.691 349.814 170.766 350.45 168.79C354.29 157.16 354.07 142.65 349.79 125.41C350.946 125.187 352.053 124.761 353.06 124.15C356.2 122.26 358.38 118.51 359.06 113.93L360.14 114.22C363.969 112.437 367.379 109.868 370.15 106.68C370.699 106.031 371.213 105.353 371.69 104.65C376.58 97.45 376.62 88.81 373.45 81.52Z" fill="#2F2E41"/>
<path opacity="0.2" d="M206.32 335.296L214.817 302.504L222.32 330.8L206.32 335.296Z" fill="black"/>
<path d="M432.43 313.93C429.39 355.81 432.54 374.25 415.76 408.78C400.493 416.253 384.59 422.35 368.24 427C366.54 427.48 364.837 427.947 363.13 428.4C341.622 434.091 319.529 437.275 297.29 437.89C296.13 437.92 294.99 437.94 293.89 437.96C293.5 437.97 293.12 437.98 292.74 437.98C291.49 437.99 290.25 438 289 438C265.564 438.017 242.213 435.187 219.46 429.57C217.18 429.01 214.91 428.42 212.65 427.8C200.746 424.55 189.064 420.532 177.68 415.77C171.68 413.27 165.787 410.573 160 407.68C158.69 407.02 157.38 406.36 156.09 405.68C149.46 394.02 145.69 379.84 145.61 362.8C150.2 333.44 422.29 288.61 432.43 313.93Z" fill="#2F2E41"/>
<path opacity="0.2" d="M432.422 321.102C432.577 318.509 432.751 315.831 432.953 313.042C422.813 287.722 150.723 332.552 146.133 361.912C146.146 364.604 146.261 367.216 146.455 369.767C157.57 340.789 416.059 298.181 432.422 321.102Z" fill="black"/>
<path d="M163.096 202.152C163.162 201.245 163.033 200.335 162.718 199.482C162.403 198.629 161.909 197.854 161.269 197.208C160.629 196.562 159.859 196.061 159.009 195.738C158.159 195.415 157.25 195.278 156.343 195.336C156.005 195.349 155.668 195.391 155.338 195.462L115.576 204.444C114.687 204.66 113.854 205.059 113.129 205.616C112.404 206.173 111.804 206.876 111.367 207.679C110.784 207.701 110.205 207.785 109.639 207.931C108.402 208.211 107.232 208.732 106.196 209.465C105.16 210.198 104.279 211.127 103.602 212.2C102.926 213.274 102.467 214.47 102.253 215.72C102.038 216.971 102.072 218.251 102.353 219.489C102.633 220.726 103.155 221.896 103.887 222.932C104.62 223.968 105.55 224.849 106.623 225.526C108.79 226.892 111.412 227.342 113.911 226.775C115.333 226.445 116.664 225.801 117.805 224.891L131.279 262.831C131.952 264.02 132.992 264.96 134.243 265.509C135.494 266.058 136.89 266.187 138.22 265.878L164.069 260.036C165.39 259.727 166.578 259.007 167.464 257.98C168.35 256.953 168.888 255.671 169 254.32L163.096 202.152ZM113.314 224.074C111.529 224.477 109.658 224.155 108.11 223.18C106.562 222.205 105.464 220.656 105.056 218.872C104.649 217.088 104.965 215.216 105.936 213.665C106.907 212.115 108.454 211.013 110.236 210.6C110.362 210.569 110.488 210.6 110.613 210.569C110.604 211.713 110.896 212.84 111.461 213.835L116.392 222.441C115.534 223.255 114.47 223.82 113.314 224.074Z" fill="#2F2E41"/>
<path d="M156.343 195.336C156.72 200.361 148.114 206.14 136.587 208.433C126.003 210.6 116.518 209.093 113.848 205.135C114.385 204.817 114.967 204.584 115.576 204.444L155.338 195.462C155.668 195.391 156.005 195.349 156.343 195.336Z" fill="#3F3D56"/>
<path d="M128.843 322.905L151.177 311.738L132.566 261.488L127.661 236.146C127.023 232.853 125.533 229.786 123.339 227.25C121.145 224.714 118.324 222.798 115.157 221.694C111.991 220.59 108.59 220.336 105.294 220.958C101.999 221.58 98.9247 223.056 96.3785 225.238C92.6054 228.472 90.2363 233.046 89.7712 237.994C89.3062 242.941 90.7816 247.876 93.886 251.757L112.093 274.516L128.843 322.905Z" fill="#A0616A"/>
<path d="M151.177 302.433L121.399 317.322L143.997 388.131C145.62 393.216 148.529 397.795 152.443 401.424C156.356 405.054 161.141 407.611 166.333 408.847C172.735 410.372 179.457 409.817 185.523 407.265C191.589 404.712 196.684 400.294 200.07 394.65L259.995 291.936C264.242 284.859 265.553 276.401 263.648 268.37C261.743 260.338 256.773 253.371 249.8 248.954C246.049 246.579 241.841 245.02 237.448 244.379C233.055 243.738 228.577 244.029 224.304 245.233C220.031 246.437 216.06 248.527 212.648 251.368C209.237 254.208 206.462 257.735 204.504 261.719L167.928 339.656L151.177 302.433Z" fill="#3A5A40"/>
<path d="M141.967 238.441C141.911 238.441 141.857 238.432 141.804 238.414L135.303 236.176C135.224 236.149 135.154 236.103 135.097 236.042C135.041 235.981 135.001 235.907 134.98 235.826C134.96 235.746 134.96 235.661 134.98 235.581C135.001 235.5 135.041 235.426 135.097 235.365L139.933 230.101C139.977 230.052 140.03 230.012 140.09 229.985C140.15 229.957 140.214 229.941 140.28 229.938C140.346 229.935 140.411 229.945 140.473 229.967C140.535 229.99 140.592 230.024 140.64 230.069C140.689 230.113 140.728 230.167 140.756 230.227C140.783 230.286 140.799 230.351 140.802 230.417C140.804 230.482 140.794 230.548 140.771 230.61C140.748 230.671 140.714 230.728 140.669 230.776L136.35 235.479L142.129 237.469C142.241 237.507 142.336 237.584 142.396 237.686C142.457 237.787 142.479 237.907 142.46 238.024C142.44 238.141 142.38 238.247 142.29 238.323C142.2 238.4 142.085 238.441 141.967 238.441Z" fill="#283618"/>
<path d="M150.878 236.617C150.779 236.617 150.681 236.587 150.599 236.532C150.516 236.476 150.452 236.397 150.415 236.305C150.378 236.212 150.369 236.111 150.389 236.014C150.41 235.916 150.459 235.827 150.531 235.758L154.925 231.509L149.022 229.076C148.961 229.051 148.906 229.015 148.859 228.968C148.813 228.922 148.776 228.867 148.75 228.806C148.725 228.746 148.712 228.681 148.712 228.615C148.712 228.549 148.724 228.484 148.75 228.423C148.775 228.363 148.811 228.307 148.858 228.261C148.904 228.214 148.959 228.178 149.02 228.152C149.081 228.127 149.146 228.114 149.211 228.114C149.277 228.114 149.342 228.127 149.403 228.152L156.012 230.876C156.089 230.908 156.157 230.958 156.209 231.022C156.262 231.086 156.297 231.163 156.313 231.244C156.329 231.326 156.324 231.41 156.299 231.489C156.274 231.568 156.229 231.64 156.169 231.697L151.226 236.477C151.133 236.567 151.008 236.617 150.878 236.617Z" fill="#283618"/>
<path d="M143.332 241.5C143.282 241.5 143.232 241.493 143.185 241.478C143.122 241.458 143.063 241.427 143.013 241.385C142.962 241.343 142.92 241.292 142.889 241.234C142.859 241.176 142.84 241.112 142.834 241.047C142.827 240.981 142.834 240.915 142.853 240.853L147.468 225.853C147.508 225.726 147.596 225.621 147.713 225.559C147.83 225.497 147.967 225.485 148.093 225.524C148.22 225.563 148.326 225.65 148.388 225.767C148.45 225.884 148.463 226.021 148.424 226.147L143.81 241.147C143.778 241.25 143.715 241.339 143.629 241.402C143.543 241.466 143.438 241.5 143.332 241.5Z" fill="#283618"/>
</g>
<defs>
<clipPath id="clip0_12_17">
<rect width="578" height="438" fill="white"/>
</clipPath>
</defs>
</svg>
