<svg width="613" height="552" viewBox="0 0 613 552" fill="none" xmlns="http://www.w3.org/2000/svg">
<path d="M594.209 476.963H33.7911C28.8074 476.963 24.0278 474.983 20.5038 471.459C16.9798 467.935 15 463.156 15 458.172C218.151 434.562 417.485 434.562 613 458.172C613 463.156 611.02 467.935 607.496 471.459C603.972 474.983 599.193 476.963 594.209 476.963Z" fill="#2F2E41"/>
<path d="M613 459.277L15 458.172L84.3061 341.556L84.6377 341.004V83.9964C84.6374 80.8768 85.2517 77.7878 86.4454 74.9057C87.639 72.0236 89.3887 69.4049 91.5946 67.199C93.8004 64.9932 96.4191 63.2435 99.3012 62.0498C102.183 60.8561 105.272 60.2419 108.392 60.2422H516.292C519.412 60.2419 522.501 60.8561 525.383 62.0498C528.265 63.2435 530.883 64.9932 533.089 67.199C535.295 69.4049 537.045 72.0236 538.239 74.9057C539.432 77.7878 540.046 80.8768 540.046 83.9964V342.772L613 459.277Z" fill="#3F3D56"/>
<path d="M107.85 76.8225C105.799 76.8249 103.832 77.6408 102.382 79.0914C100.931 80.5419 100.115 82.5087 100.113 84.5601V318.896C100.115 320.948 100.931 322.915 102.382 324.365C103.832 325.816 105.799 326.632 107.85 326.634H520.15C522.201 326.632 524.168 325.816 525.618 324.365C527.069 322.914 527.885 320.948 527.887 318.896V84.5601C527.885 82.5087 527.069 80.542 525.618 79.0915C524.168 77.6409 522.201 76.8249 520.15 76.8225H107.85Z" fill="white"/>
<path d="M109.578 357.584C108.944 357.585 108.324 357.767 107.79 358.109C107.256 358.451 106.831 358.939 106.565 359.514L85.2099 405.939C84.9774 406.445 84.8757 407 84.9142 407.555C84.9527 408.11 85.1301 408.646 85.4301 409.114C85.73 409.582 86.143 409.968 86.6309 410.235C87.1188 410.501 87.666 410.641 88.2221 410.641H537.314C537.879 410.641 538.435 410.497 538.929 410.222C539.423 409.946 539.838 409.549 540.135 409.069C540.432 408.588 540.601 408.039 540.627 407.474C540.652 406.909 540.532 406.348 540.279 405.842L517.067 359.417C516.793 358.865 516.37 358.401 515.846 358.077C515.322 357.753 514.718 357.582 514.102 357.584H109.578Z" fill="#2F2E41"/>
<path d="M312.342 72.9538C315.089 72.9538 317.316 70.7268 317.316 67.9797C317.316 65.2325 315.089 63.0056 312.342 63.0056C309.595 63.0056 307.368 65.2325 307.368 67.9797C307.368 70.7268 309.595 72.9538 312.342 72.9538Z" fill="white"/>
<path d="M268.2 419.484C267.471 419.485 266.763 419.726 266.184 420.169C265.605 420.613 265.189 421.234 264.998 421.938L259.641 441.834C259.509 442.326 259.491 442.841 259.59 443.341C259.689 443.84 259.901 444.31 260.211 444.714C260.521 445.118 260.919 445.445 261.375 445.671C261.832 445.896 262.334 446.013 262.843 446.013H364.717C365.246 446.013 365.767 445.887 366.237 445.644C366.706 445.402 367.112 445.051 367.418 444.62C367.725 444.189 367.924 443.692 367.999 443.168C368.074 442.645 368.023 442.112 367.85 441.612L360.963 421.715C360.737 421.064 360.314 420.499 359.752 420.099C359.191 419.7 358.519 419.485 357.829 419.484H268.2Z" fill="#2F2E41"/>
<path d="M540.046 337.135V341.556H84.306L84.649 341.004V337.135H540.046Z" fill="#2F2E41"/>
<path d="M527.335 154.75C570.068 154.75 604.71 120.108 604.71 77.3752C604.71 34.6421 570.068 0 527.335 0C484.601 0 449.959 34.6421 449.959 77.3752C449.959 120.108 484.601 154.75 527.335 154.75Z" fill="#3A5A40"/>
<path d="M559.39 111.089H495.279C494.107 111.088 492.983 110.621 492.154 109.792C491.325 108.964 490.859 107.84 490.858 106.667V67.9797C490.859 66.8074 491.325 65.6835 492.154 64.8546C492.983 64.0257 494.107 63.5595 495.279 63.5582H559.39C560.562 63.5595 561.686 64.0257 562.515 64.8546C563.344 65.6835 563.81 66.8074 563.811 67.9797V106.667C563.81 107.84 563.344 108.964 562.515 109.792C561.686 110.621 560.562 111.088 559.39 111.089ZM495.279 67.9797V106.667H559.393L559.39 67.9797L495.279 67.9797Z" fill="white"/>
<path d="M547.231 67.9797H507.438V50.2939C507.438 37.484 515.806 28.1867 527.334 28.1867C538.863 28.1867 547.231 37.484 547.231 50.2939L547.231 67.9797ZM511.859 63.5582H542.81V50.2939C542.81 39.8809 536.446 32.6081 527.335 32.6081C518.223 32.6081 511.859 39.8809 511.859 50.2939L511.859 63.5582Z" fill="white"/>
<path d="M527.335 90.6395C529.776 90.6395 531.756 88.66 531.756 86.2181C531.756 83.7762 529.776 81.7967 527.335 81.7967C524.893 81.7967 522.913 83.7762 522.913 86.2181C522.913 88.66 524.893 90.6395 527.335 90.6395Z" fill="white"/>
<path d="M473.32 247.149H154.68C153.116 247.148 151.616 246.525 150.51 245.419C149.403 244.313 148.781 242.813 148.779 241.249V162.208C148.781 160.643 149.403 159.144 150.51 158.037C151.616 156.931 153.116 156.309 154.68 156.307H473.32C474.884 156.309 476.384 156.931 477.49 158.037C478.596 159.144 479.219 160.643 479.221 162.208V241.249C479.219 242.813 478.596 244.313 477.49 245.419C476.384 246.525 474.884 247.148 473.32 247.149V247.149ZM154.68 158.667C153.741 158.668 152.841 159.042 152.178 159.705C151.514 160.369 151.141 161.269 151.14 162.208V241.249C151.141 242.187 151.514 243.087 152.178 243.751C152.841 244.415 153.741 244.788 154.68 244.789H473.32C474.259 244.788 475.158 244.415 475.822 243.751C476.486 243.087 476.859 242.187 476.86 241.249V162.208C476.859 161.269 476.486 160.369 475.822 159.705C475.158 159.042 474.259 158.668 473.32 158.667L154.68 158.667Z" fill="#E6E6E6"/>
<path d="M204.19 222.732C217.465 222.732 228.227 211.97 228.227 198.695C228.227 185.421 217.465 174.659 204.19 174.659C190.915 174.659 180.154 185.421 180.154 198.695C180.154 211.97 190.915 222.732 204.19 222.732Z" fill="#E6E6E6"/>
<path d="M259.703 182.671C259.176 182.67 258.655 182.773 258.168 182.974C257.681 183.175 257.239 183.47 256.866 183.842C256.494 184.214 256.198 184.656 255.996 185.143C255.794 185.629 255.691 186.151 255.691 186.677C255.691 187.204 255.794 187.725 255.996 188.212C256.198 188.698 256.494 189.14 256.866 189.512C257.239 189.884 257.681 190.179 258.168 190.38C258.655 190.581 259.176 190.684 259.703 190.683H448.561C449.623 190.683 450.642 190.261 451.393 189.51C452.145 188.759 452.567 187.74 452.567 186.677C452.567 185.615 452.145 184.596 451.393 183.845C450.642 183.093 449.623 182.671 448.561 182.671H259.703Z" fill="#E6E6E6"/>
<path d="M259.703 206.708C258.641 206.708 257.622 207.13 256.87 207.881C256.119 208.632 255.697 209.651 255.697 210.714C255.697 211.776 256.119 212.795 256.87 213.546C257.622 214.298 258.641 214.72 259.703 214.72H340.969C342.032 214.72 343.05 214.298 343.802 213.546C344.553 212.795 344.975 211.776 344.975 210.714C344.975 209.651 344.553 208.632 343.802 207.881C343.05 207.13 342.032 206.708 340.969 206.708H259.703Z" fill="#E6E6E6"/>
</svg>
